{
	"asset":{
		"version":"2.0",
		"generator":"Created using the official Cinema 4D glTF Exporter 1.000x284978"
	},
	"scenes":[{
		"nodes":[0]
	}],
	"nodes":[{
		"name":"Platonic",
		"mesh":0
	}],
	"meshes":[{
		"name":"Platonic",
		"primitives":[{
			"attributes":{
				"POSITION":1,
				"NORMAL":2,
				"TEXCOORD_0":3
			},
			"indices":0
		}]
	}],
	"accessors":[{
		"type":"SCALAR",
		"bufferView":0,
		"componentType":5123,
		"count":34560,
		"byteOffset":0,
		"min":[0],
		"max":[6499]
	},
	{
		"type":"VEC3",
		"bufferView":1,
		"componentType":5126,
		"count":6500,
		"byteOffset":0,
		"min":[-85.06521606445313,
		-85.06521606445313,
		-85.06521606445313],
		"max":[85.06521606445313,
		85.06521606445313,
		85.06521606445313]
	},
	{
		"type":"VEC3",
		"bufferView":1,
		"componentType":5126,
		"count":6500,
		"byteOffset":12,
		"min":[-0.9341726303100586,
		-0.9341726303100586,
		-0.9341726303100586],
		"max":[0.9341726303100586,
		0.9341726303100586,
		0.9341726303100586]
	},
	{
		"type":"VEC2",
		"bufferView":1,
		"componentType":5126,
		"count":6500,
		"byteOffset":24,
		"min":[0.0,
		0.0],
		"max":[1.0,
		0.8659999370574951]
	}],
	"bufferViews":[{
		"buffer":0,
		"target":34963,
		"byteOffset":0,
		"byteLength":69120
	},
	{
		"buffer":0,
		"target":34962,
		"byteOffset":69120,
		"byteLength":208000,
		"byteStride":32
	}],
	"buffers":[{
		"uri":"data:application/octet-stream;base64,",
		"byteLength":277120
	}]
}