{
	"asset":{
		"version":"2.0",
		"generator":"Created using the official Cinema 4D glTF Exporter 1.000x284978"
	},
	"scenes":[{
		"nodes":[0]
	}],
	"nodes":[{
		"name":"Sphere",
		"mesh":0
	}],
	"meshes":[{
		"name":"Sphere",
		"primitives":[{
			"attributes":{
				"POSITION":1,
				"NORMAL":2,
				"TEXCOORD_0":3
			},
			"indices":0
		}]
	}],
	"accessors":[{
		"type":"SCALAR",
		"bufferView":0,
		"componentType":5123,
		"count":13500,
		"byteOffset":0,
		"min":[0],
		"max":[2415]
	},
	{
		"type":"VEC3",
		"bufferView":1,
		"componentType":5126,
		"count":2416,
		"byteOffset":0,
		"min":[-99.91522979736328,
		-99.91522979736328,
		-99.91522979736328],
		"max":[99.91522979736328,
		99.91522979736328,
		99.91522979736328]
	},
	{
		"type":"VEC3",
		"bufferView":1,
		"componentType":5126,
		"count":2416,
		"byteOffset":12,
		"min":[-0.9991431832313538,
		-0.999143123626709,
		-0.999143123626709],
		"max":[0.9991431832313538,
		0.9991431832313538,
		0.999143123626709]
	},
	{
		"type":"VEC2",
		"bufferView":1,
		"componentType":5126,
		"count":2416,
		"byteOffset":24,
		"min":[0.0,
		0.0],
		"max":[1.0,
		0.8659999370574951]
	}],
	"bufferViews":[{
		"buffer":0,
		"target":34963,
		"byteOffset":0,
		"byteLength":27000
	},
	{
		"buffer":0,
		"target":34962,
		"byteOffset":27000,
		"byteLength":77312,
		"byteStride":32
	}],
	"buffers":[{
		"uri":"data:application/octet-stream;base64,",
		"byteLength":104312
	}]
}